<svg width="21" height="21" xmlns="http://www.w3.org/2000/svg" xmlns:xlink="http://www.w3.org/1999/xlink" xml:space="preserve" overflow="hidden"><defs><clipPath id="clip0"><rect x="502" y="354" width="21" height="21"/></clipPath></defs><g clip-path="url(#clip0)" transform="translate(-502 -354)"><path d="M512.5 363.625C511.406 363.625 510.531 362.75 510.531 361.656 510.531 360.562 511.406 359.688 512.5 359.688 513.594 359.688 514.469 360.562 514.469 361.656 514.469 362.75 513.594 363.625 512.5 363.625ZM512.5 357.062C510.991 357.062 509.569 357.806 508.716 359.075 507.862 360.322 507.688 361.919 508.234 363.341L510.312 367.934 512.106 371.697C512.172 371.85 512.325 371.938 512.5 371.938 512.675 371.938 512.828 371.85 512.894 371.697L514.688 367.934 516.766 363.341C517.312 361.919 517.138 360.322 516.284 359.075 515.431 357.806 514.009 357.062 512.5 357.062Z" fill="#82BE00"/></g></svg>