<svg width="24" height="24" xmlns="http://www.w3.org/2000/svg" xmlns:xlink="http://www.w3.org/1999/xlink" xml:space="preserve" overflow="hidden"><defs><clipPath id="clip0"><rect x="502" y="286" width="24" height="24"/></clipPath></defs><g clip-path="url(#clip0)" transform="translate(-502 -286)"><path d="M504 291 504 305 524 305 524 291 504 291ZM514.35 299.725C514.15 299.925 513.85 299.925 513.65 299.725L506.25 292.5 521.775 292.5 514.35 299.725ZM510.375 297.925 505.5 302.825 505.5 293.15 510.375 297.925ZM511.1 298.625 512.975 300.45C513.275 300.725 513.65 300.875 514.025 300.875 514.4 300.875 514.775 300.725 515.075 300.45L516.95 298.625 521.8 303.5 506.225 303.5 511.1 298.625ZM517.625 297.925 522.5 293.175 522.5 302.8 517.625 297.925Z" stroke="#BFBFBF" stroke-width="0.25" fill="#82BE00"/></g></svg>