<svg width="23" height="23" xmlns="http://www.w3.org/2000/svg" xmlns:xlink="http://www.w3.org/1999/xlink" xml:space="preserve" overflow="hidden"><defs><clipPath id="clip0"><rect x="503" y="315" width="23" height="23"/></clipPath></defs><g clip-path="url(#clip0)" transform="translate(-503 -315)"><path d="M512.392 321.996C512.583 321.804 512.703 321.541 512.703 321.253 512.703 320.966 512.583 320.702 512.392 320.51L509.085 317.228C508.894 317.036 508.63 316.917 508.367 316.917 508.103 316.917 507.816 317.036 507.624 317.228L507.265 317.587 512.032 322.355 512.392 321.996Z" fill="#82BE00"/><path d="M517.207 330.453C517.111 330.549 516.968 330.597 516.848 330.597 516.728 330.597 516.584 330.549 516.489 330.453L510.547 324.535C510.451 324.44 510.403 324.296 510.403 324.176 510.403 324.056 510.451 323.913 510.547 323.817L511.29 323.098 506.522 318.33C506.21 318.642 505.923 318.929 505.731 319.121 505.252 319.576 504.965 320.175 504.941 320.822 504.869 321.9 505.132 322.93 505.492 323.936 505.875 324.823 506.378 325.661 506.929 326.452 508.894 329.399 511.361 331.962 514.236 333.999 514.716 334.358 515.219 334.67 515.746 334.957 516.944 335.556 518.214 335.987 519.579 336.083 520.49 336.155 521.4 335.796 522.023 335.125L522.67 334.478 517.926 329.71 517.207 330.453Z" fill="#82BE00"/><path d="M523.772 331.915 520.466 328.608C520.274 328.417 520.01 328.297 519.723 328.297 519.435 328.297 519.172 328.417 518.98 328.608L518.621 328.992 523.389 333.759 523.748 333.4C523.94 333.208 524.059 332.945 524.059 332.657 524.059 332.37 523.964 332.106 523.772 331.915Z" fill="#82BE00"/></g></svg>